<?xml version="1.0" standalone="no"?>
<!DOCTYPE svg PUBLIC "-//W3C//DTD SVG 20010904//EN"
 "http://www.w3.org/TR/2001/REC-SVG-20010904/DTD/svg10.dtd">
<svg version="1.0" xmlns="http://www.w3.org/2000/svg"
 width="1024.000000pt" height="1024.000000pt" viewBox="0 0 1024.000000 1024.000000"
 preserveAspectRatio="xMidYMid meet">
<metadata>
Created by potrace 1.11, written by Peter Selinger 2001-2013
</metadata>
<g transform="translate(0.000000,1024.000000) scale(0.100000,-0.100000)"
fill="#000000" stroke="none">
<path d="M530 7625 c0 -17 19 -20 205 -35 374 -30 655 -118 734 -228 12 -17
26 -57 32 -89 14 -72 5 -1125 -10 -1258 -6 -49 -15 -133 -20 -185 -27 -250
-113 -399 -289 -501 -136 -79 -399 -143 -697 -169 -162 -14 -175 -17 -175 -35
0 -13 157 -15 1285 -15 1111 0 1285 2 1285 14 0 17 -32 22 -185 31 -346 21
-639 79 -786 157 -69 36 -151 116 -177 172 -46 99 -47 112 -46 831 0 374 4
773 8 887 l8 207 152 -122 c83 -68 248 -199 366 -292 362 -284 1306 -1046
1792 -1446 373 -307 466 -379 489 -379 23 0 61 27 177 127 81 70 192 166 247
213 107 93 850 685 1310 1045 154 120 470 371 703 557 233 187 429 342 438
345 12 4 14 -82 12 -673 l-3 -679 -50 -7 c-27 -3 -115 -12 -195 -18 -901 -70
-1672 -328 -2228 -745 -129 -96 -318 -277 -378 -361 -227 -318 -92 -646 321
-783 90 -30 418 -104 595 -136 150 -26 291 -64 343 -93 89 -48 109 -123 60
-223 -37 -74 -312 -351 -401 -404 -155 -92 -652 -298 -821 -341 -244 -62 -513
-93 -871 -101 -589 -12 -1146 63 -1551 210 -168 61 -488 216 -838 405 -92 49
-92 49 -18 -50 59 -79 70 -87 286 -208 364 -203 505 -264 756 -328 768 -196
1520 -229 2275 -101 454 77 994 246 1415 444 245 115 477 276 655 455 156 157
227 290 237 446 13 201 -95 358 -322 465 -117 55 -223 83 -496 129 -373 63
-452 87 -541 168 -61 55 -73 90 -54 157 23 77 72 143 151 203 135 102 311 213
420 267 190 92 532 200 823 260 111 22 378 65 410 65 14 0 16 -78 3 -222 -22
-240 -100 -334 -333 -402 -199 -57 -445 -92 -725 -103 -159 -6 -173 -8 -173
-25 0 -17 55 -18 1690 -18 1446 0 1690 2 1690 14 0 11 -23 16 -97 20 -367 23
-604 64 -795 137 -148 57 -176 120 -185 410 -6 185 -6 191 13 186 10 -3 51 -8
89 -12 39 -4 135 -18 215 -31 462 -79 883 -233 1225 -447 75 -48 173 -93 181
-84 2 2 -31 40 -73 83 -226 232 -497 388 -904 518 -209 68 -478 129 -702 161
l-49 7 5 481 c8 815 27 871 337 971 58 19 150 41 206 50 83 13 366 36 452 36
13 0 22 6 22 15 0 13 -123 15 -1047 15 l-1048 -1 -155 -130 c-256 -216 -598
-494 -1105 -900 -436 -349 -1111 -879 -1119 -879 -2 0 -534 430 -1182 955
l-1178 955 -1048 0 c-910 0 -1048 -2 -1048 -15z"/>
</g>
</svg>
